<svg width="78" height="90" viewBox="0 0 78 90" fill="none" xmlns="http://www.w3.org/2000/svg">
<g filter="url(#filter0_d_5_30)">
<path fill-rule="evenodd" clip-rule="evenodd" d="M29.2084 8.15078C29.2084 8.28369 29.4927 8.76445 31.0773 11.3092C31.2845 11.6419 31.8253 12.5194 32.279 13.2588C33.6063 15.4223 34.796 17.3536 35.1657 17.9452C35.5433 18.5495 36.7028 20.4306 37.6233 21.9325C37.9478 22.4618 38.355 23.1142 38.528 23.3823C38.7013 23.6504 38.9176 24.0011 39.009 24.1615C39.1518 24.4117 39.6247 25.1819 41.9467 28.9446C42.8957 30.4824 43.1122 30.8316 43.5098 31.4652C43.747 31.8433 44.3432 32.8127 44.835 33.6193C45.3267 34.4259 45.9099 35.3638 46.1306 35.7034C46.3515 36.0433 46.5323 36.3444 46.5323 36.373C46.5323 36.4017 46.6891 36.6599 46.8806 36.947C47.0722 37.2342 47.4725 37.8758 47.77 38.3728C48.0676 38.8699 48.3587 39.2947 48.4166 39.3169C48.5424 39.3653 48.9384 39.1907 52.032 37.7216C52.5109 37.4943 53.2121 37.1645 53.5902 36.989C53.9683 36.8132 54.6077 36.5137 55.011 36.3233C55.4143 36.1329 56.0742 35.823 56.4776 35.6349C56.8809 35.4468 57.5614 35.1287 57.99 34.9282C58.4185 34.7279 59.0218 34.447 59.3307 34.304C60.1378 33.9305 62.2034 32.9554 63.967 32.1154C64.7307 31.7515 64.9693 31.4652 64.5084 31.4652C64.4241 31.4652 64.2956 31.3827 64.2229 31.2819C64.1503 31.1811 64.0265 31.0986 63.9479 31.0986C63.8693 31.0986 63.7456 31.0161 63.673 30.9153C63.6003 30.8145 63.488 30.732 63.4236 30.732C63.359 30.732 63.3063 30.6907 63.3063 30.6403C63.3063 30.5899 63.2444 30.5486 63.1688 30.5486C63.0932 30.5486 63.0313 30.5074 63.0313 30.457C63.0313 30.4066 62.9695 30.3653 62.8938 30.3653C62.8182 30.3653 62.7563 30.3241 62.7563 30.2737C62.7563 30.2232 62.6945 30.182 62.6189 30.182C62.5432 30.182 62.4814 30.1407 62.4814 30.0903C62.4814 30.0399 62.4383 29.9987 62.3858 29.9987C62.3333 29.9987 62.2018 29.9162 62.0936 29.8153C61.9855 29.7145 61.8427 29.632 61.7767 29.632C61.7105 29.632 61.6564 29.5958 61.6564 29.5516C61.6564 29.5071 61.5327 29.4196 61.3814 29.357C61.2302 29.2945 61.1064 29.212 61.1064 29.1737C61.1064 29.1354 60.9827 29.053 60.8315 28.9904C60.6802 28.9278 60.5565 28.8431 60.5565 28.802C60.5565 28.7612 60.4742 28.7017 60.3736 28.6698C60.2732 28.638 60.1392 28.5628 60.0757 28.503C59.883 28.321 59.1916 27.8905 59.092 27.8905C59.0404 27.8905 58.9982 27.8492 58.9982 27.7988C58.9982 27.7484 58.9364 27.7071 58.8607 27.7071C58.7851 27.7071 58.7233 27.6659 58.7233 27.6155C58.7233 27.5651 58.6614 27.5238 58.5858 27.5238C58.5101 27.5238 58.4483 27.4894 58.4483 27.4477C58.4483 27.4058 58.3348 27.313 58.1962 27.2415C58.0576 27.1698 57.8642 27.0392 57.7665 26.9509C57.6687 26.8627 57.5346 26.7905 57.4686 26.7905C57.4024 26.7905 57.3483 26.7562 57.3483 26.7144C57.3483 26.6725 57.2349 26.5797 57.0963 26.5082C56.9576 26.4365 56.7642 26.3059 56.6666 26.2176C56.5688 26.1294 56.4439 26.0572 56.3889 26.0572C56.3339 26.0572 56.2294 25.9747 56.1567 25.8739C56.0841 25.7731 55.9718 25.6906 55.9074 25.6906C55.8428 25.6906 55.7901 25.6493 55.7901 25.5989C55.7901 25.5485 55.7282 25.5073 55.6526 25.5073C55.577 25.5073 55.5151 25.466 55.5151 25.4156C55.5151 25.3652 55.4532 25.3239 55.3776 25.3239C55.302 25.3239 55.2401 25.2827 55.2401 25.2323C55.2401 25.1819 55.1886 25.1406 55.1255 25.1406C55.0625 25.1404 54.8925 25.0384 54.7477 24.914C54.6029 24.7893 54.4069 24.6631 54.3123 24.6328C54.2177 24.6028 54.1402 24.5462 54.1402 24.5068C54.1402 24.4674 53.9752 24.3608 53.7735 24.2698C53.5719 24.1789 53.4069 24.0696 53.4069 24.0267C53.4069 23.9841 53.3336 23.949 53.2438 23.949C53.1542 23.949 53.0212 23.8665 52.9486 23.7657C52.876 23.6649 52.7522 23.5824 52.6736 23.5824C52.595 23.5824 52.4713 23.4999 52.3986 23.3991C52.326 23.2982 52.2137 23.2157 52.1493 23.2157C52.0847 23.2157 52.032 23.1745 52.032 23.1241C52.032 23.0737 51.9701 23.0324 51.8945 23.0324C51.8189 23.0324 51.757 22.9912 51.757 22.9408C51.757 22.8903 51.6951 22.8491 51.6195 22.8491C51.5439 22.8491 51.482 22.8147 51.482 22.773C51.482 22.7311 51.3686 22.6383 51.23 22.5668C51.0913 22.4951 50.8979 22.3644 50.8003 22.2762C50.7024 22.188 50.5684 22.1158 50.5024 22.1158C50.4362 22.1158 50.3821 22.0814 50.3821 22.0397C50.3821 21.9978 50.2687 21.905 50.13 21.8335C49.9914 21.7618 49.798 21.6312 49.7004 21.5429C49.6025 21.4547 49.4685 21.3825 49.4025 21.3825C49.3362 21.3825 49.2822 21.3482 49.2822 21.3064C49.2822 21.2645 49.1687 21.1717 49.0301 21.1002C48.8914 21.0287 48.7574 20.948 48.7322 20.9208C48.6339 20.814 47.3589 20.0076 47.2888 20.0076C47.248 20.0076 47.1549 19.9251 47.0823 19.8243C47.0096 19.7235 46.8859 19.641 46.8073 19.641C46.7287 19.641 46.605 19.5585 46.5323 19.4576C46.4597 19.3568 46.3359 19.2743 46.2573 19.2743C46.1787 19.2743 46.055 19.1918 45.9824 19.091C45.9097 18.9902 45.786 18.9077 45.7074 18.9077C45.6288 18.9077 45.505 18.8252 45.4324 18.7244C45.3597 18.6235 45.242 18.541 45.1709 18.541C45.0997 18.541 44.9748 18.4686 44.8932 18.3799C44.8116 18.2915 44.6315 18.1606 44.4929 18.0896C44.3542 18.0183 44.2408 17.9258 44.2408 17.8838C44.2408 17.8421 44.1977 17.8077 44.1452 17.8077C44.0928 17.8077 43.9612 17.7252 43.8531 17.6244C43.7449 17.5236 43.6021 17.4411 43.5361 17.4411C43.4699 17.4411 43.4158 17.4065 43.4158 17.3641C43.4158 17.3219 43.3111 17.2394 43.1833 17.1812C43.0554 17.123 42.9007 17.0332 42.8395 16.9819C42.5822 16.7658 42.0244 16.4328 41.9197 16.4328C41.8574 16.4328 41.7469 16.3503 41.6743 16.2495C41.6016 16.1487 41.4779 16.0662 41.3993 16.0662C41.3207 16.0662 41.197 15.9837 41.1243 15.8829C41.0517 15.782 40.9394 15.6995 40.875 15.6995C40.8104 15.6995 40.7577 15.6583 40.7577 15.6079C40.7577 15.5575 40.6958 15.5162 40.6202 15.5162C40.5446 15.5162 40.4827 15.475 40.4827 15.4246C40.4827 15.3741 40.4208 15.3329 40.3452 15.3329C40.2696 15.3329 40.2077 15.2985 40.2077 15.2568C40.2077 15.2149 40.0943 15.1223 39.9556 15.051C39.817 14.98 39.6369 14.8491 39.5553 14.7607C39.4737 14.672 39.3488 14.5996 39.2776 14.5996C39.2065 14.5996 39.0887 14.5171 39.0161 14.4163C38.9435 14.3155 38.8197 14.233 38.7411 14.233C38.6625 14.233 38.5388 14.1505 38.4661 14.0496C38.3935 13.9488 38.2698 13.8663 38.1912 13.8663C38.1126 13.8663 37.9888 13.7838 37.9162 13.683C37.8435 13.5822 37.7106 13.4997 37.621 13.4997C37.5312 13.4997 37.4574 13.4687 37.4572 13.4309C37.4567 13.3931 37.1989 13.1976 36.8843 12.9967C36.5694 12.7955 36.2984 12.5996 36.2816 12.5613C36.2647 12.5228 36.181 12.4914 36.0956 12.4914C36.0101 12.4914 35.8806 12.4089 35.808 12.3081C35.7353 12.2072 35.6116 12.1247 35.533 12.1247C35.4544 12.1247 35.3306 12.0423 35.258 11.9414C35.1854 11.8406 35.0616 11.7581 34.983 11.7581C34.9044 11.7581 34.7807 11.6756 34.708 11.5748C34.6354 11.474 34.5117 11.3915 34.4331 11.3915C34.3545 11.3915 34.2307 11.309 34.1581 11.2081C34.0854 11.1073 33.9676 11.0248 33.8966 11.0248C33.8253 11.0248 33.7005 10.9524 33.6189 10.8637C33.5373 10.7753 33.3572 10.6444 33.2185 10.5734C33.0799 10.5021 32.9665 10.4095 32.9665 10.3676C32.9665 10.3259 32.9234 10.2915 32.8709 10.2915C32.8184 10.2915 32.6869 10.209 32.5787 10.1082C32.4706 10.0074 32.3278 9.92488 32.2618 9.92488C32.1956 9.92488 32.1415 9.89051 32.1415 9.8488C32.1415 9.80687 32.0281 9.71406 31.8895 9.64257C31.7508 9.57084 31.5574 9.44023 31.4598 9.352C31.3619 9.26378 31.2279 9.19159 31.1619 9.19159C31.0957 9.19159 31.0416 9.15653 31.0416 9.11391C31.0416 9.07106 30.8766 8.96175 30.6749 8.87078C30.4733 8.77981 30.3083 8.6705 30.3083 8.62765C30.3083 8.58503 30.235 8.54997 30.1451 8.54997C30.0555 8.54997 29.9226 8.46747 29.85 8.36664C29.7774 8.26582 29.6444 8.18332 29.5548 8.18332C29.465 8.18332 29.3917 8.14207 29.3917 8.09166C29.3917 8.04125 29.3504 8 29.3 8C29.2496 8 29.2084 8.06783 29.2084 8.15078ZM18.8493 31.7173C18.8484 32.2098 18.8206 32.3855 18.759 32.2902C18.6838 32.174 18.6699 32.1788 18.6687 32.3211C18.668 32.4137 18.5363 32.672 18.3761 32.8949C18.0191 33.392 17.8289 33.1779 20.1339 34.8714C20.512 35.1491 21.3988 35.802 22.1046 36.3221C22.8104 36.8425 23.6235 37.4372 23.9113 37.6437L24.4347 38.019L24.7527 39.0273C24.9276 39.5818 25.3854 41.0874 25.7702 42.3729C26.1549 43.6585 26.5055 44.8134 26.5495 44.9394C26.5933 45.0655 26.7198 45.4779 26.8302 45.856C26.9404 46.2341 27.1034 46.7704 27.1918 47.0476C27.2803 47.3249 27.4439 47.8611 27.5553 48.2392C27.981 49.6836 27.9357 49.6112 28.7959 50.2237C31.7685 52.3406 32.0957 52.4951 32.7552 52.0931C33.7836 51.4659 33.6285 50.4959 32.3629 49.6389C32.056 49.431 31.4823 49.0296 31.0877 48.7463C30.693 48.4633 30.3154 48.201 30.2483 48.1636C30.1814 48.126 29.7716 46.9214 29.3376 45.4862C28.9038 44.0512 28.4668 42.6089 28.3669 42.2813C28.2668 41.9536 28.152 41.5617 28.1116 41.4105C28.0715 41.2592 27.9771 40.9499 27.9022 40.723C27.8273 40.4962 27.6753 40.0012 27.5644 39.6231C27.4535 39.245 27.327 38.8325 27.2835 38.7065C27.2399 38.5804 27.1148 38.168 27.0053 37.7899C26.6146 36.4408 26.8343 36.6812 24.2733 34.8031C18.1852 30.3385 18.8511 30.7173 18.8493 31.7173ZM43.9658 50.239C43.9658 50.3307 44.0247 50.6091 44.0967 50.8578C44.1688 51.1064 44.4411 52.1348 44.7018 53.1431C45.2713 55.3446 45.4631 56.0785 45.7147 57.0158C45.8194 57.4065 45.94 57.8705 45.9824 58.047C46.0247 58.2234 46.1485 58.6978 46.2573 59.1011C46.3662 59.5044 46.4904 59.9787 46.5335 60.1552C46.5765 60.3316 46.6586 60.641 46.7156 60.8426C46.7727 61.0443 46.8541 61.3536 46.8964 61.5301C46.9388 61.7065 47.0779 62.2428 47.2056 62.7217C47.6478 64.3805 48.3633 67.1675 48.3644 67.236C48.3651 67.2738 54.0398 67.3047 60.9749 67.3047C69.5535 67.3047 73.6416 67.3352 73.763 67.4003C74.0334 67.5451 74.0886 67.277 73.8558 66.95C73.7504 66.802 73.664 66.6354 73.664 66.5802C73.664 66.5249 73.6228 66.4798 73.5723 66.4798C73.5219 66.4798 73.4807 66.4179 73.4807 66.3423C73.4807 66.2667 73.4394 66.2048 73.389 66.2048C73.3386 66.2048 73.2974 66.1223 73.2974 66.0215C73.2974 65.9207 73.2561 65.8382 73.2057 65.8382C73.1553 65.8382 73.114 65.7557 73.114 65.6548C73.114 65.554 73.0728 65.4715 73.0224 65.4715C72.972 65.4715 72.9307 65.389 72.9307 65.2882C72.9307 65.1874 72.8895 65.1049 72.8391 65.1049C72.7887 65.1049 72.7474 65.0508 72.7474 64.9846C72.7474 64.9186 72.6649 64.7758 72.5641 64.6676C72.4633 64.5595 72.3808 64.4073 72.3808 64.3296C72.3808 64.252 72.3395 64.1883 72.2891 64.1883C72.2387 64.1883 72.1974 64.1058 72.1974 64.0049C72.1974 63.9041 72.1562 63.8216 72.1058 63.8216C72.0554 63.8216 72.0141 63.7391 72.0141 63.6383C72.0141 63.5375 71.9807 63.455 71.9396 63.455C71.8986 63.455 71.8083 63.3106 71.7391 63.1342C71.6699 62.9577 71.5831 62.8133 71.546 62.8133C71.5091 62.8133 71.4515 62.6896 71.4183 62.5384C71.3851 62.3871 71.32 62.2634 71.2735 62.2634C71.2272 62.2634 71.1892 62.1809 71.1892 62.0801C71.1892 61.9792 71.1479 61.8967 71.0975 61.8967C71.0471 61.8967 71.0058 61.8142 71.0058 61.7134C71.0058 61.6126 70.9749 61.5294 70.9371 61.5287C70.8993 61.5278 70.7675 61.3216 70.644 61.0704C70.5207 60.819 70.3867 60.6135 70.3461 60.6135C70.3058 60.6135 70.2726 60.531 70.2726 60.4302C70.2726 60.3293 70.2313 60.2468 70.1809 60.2468C70.1305 60.2468 70.0892 60.1643 70.0892 60.0635C70.0892 59.9627 70.048 59.8802 69.9976 59.8802C69.9472 59.8802 69.9059 59.7977 69.9059 59.6969C69.9059 59.596 69.8725 59.5135 69.8314 59.5135C69.7904 59.5135 69.7001 59.3692 69.6309 59.1927C69.5617 59.0163 69.4714 58.8719 69.4304 58.8719C69.3894 58.8719 69.3559 58.81 69.3559 58.7344C69.3559 58.6588 69.3147 58.5969 69.2643 58.5969C69.2139 58.5969 69.1726 58.5351 69.1726 58.4594C69.1726 58.3838 69.1314 58.3219 69.081 58.3219C69.0305 58.3219 68.9893 58.2395 68.9893 58.1386C68.9893 58.0378 68.948 57.9553 68.8976 57.9553C68.8472 57.9553 68.806 57.8728 68.806 57.772C68.806 57.6712 68.7647 57.5887 68.7143 57.5887C68.6639 57.5887 68.6227 57.5062 68.6227 57.4053C68.6227 57.3045 68.5814 57.222 68.531 57.222C68.4806 57.222 68.4393 57.1679 68.4393 57.1017C68.4393 57.0357 68.3568 56.893 68.256 56.7848C68.1552 56.6766 68.0727 56.5245 68.0727 56.4468C68.0727 56.3691 68.0314 56.3054 67.981 56.3054C67.9306 56.3054 67.8894 56.2229 67.8894 56.1221C67.8894 56.0213 67.8481 55.9388 67.7977 55.9388C67.7473 55.9388 67.706 55.8783 67.706 55.8045C67.706 55.7307 67.5963 55.4729 67.4622 55.2316C67.3282 54.9903 67.1735 54.7105 67.1185 54.6097C66.9739 54.3443 66.874 54.2918 66.5103 54.2902C66.2271 54.2891 65.6194 54.1818 63.9479 53.8386C63.7211 53.7921 63.2673 53.7066 62.9397 53.6486C62.612 53.5906 62.1789 53.5077 61.9772 53.4639C61.7756 53.4201 61.3425 53.3376 61.0148 53.2806C60.6871 53.2235 60.254 53.141 60.0523 53.0973C59.8507 53.0535 59.4176 52.9705 59.0899 52.9126C58.7622 52.8546 58.3085 52.7691 58.0816 52.7224C57.4998 52.6025 55.8474 52.2884 55.1943 52.1736C54.8918 52.1204 54.4793 52.0406 54.2777 51.9966C54.076 51.9526 53.7667 51.8919 53.5902 51.8614C53.3166 51.8145 51.4653 51.4643 47.0135 50.6178C43.6988 49.9874 43.9658 50.0204 43.9658 50.239ZM23.9285 65.236C23.3987 65.4665 23.2369 65.8427 22.9793 67.4422C22.6301 69.6114 22.4312 70.7597 22.3835 70.8832C22.3535 70.9609 21.5771 71.3908 20.6584 71.8388C15.0334 74.5806 15.0926 74.5487 15.0926 74.8251C15.0926 74.9655 15.1308 75.0943 15.1773 75.1113C15.2241 75.128 15.2756 75.2036 15.2919 75.2793C15.3366 75.4857 15.8783 76.0125 16.0458 76.0125C16.1265 76.0125 16.1925 76.0538 16.1925 76.1042C16.1925 76.1546 16.2532 76.1959 16.3272 76.1959C16.4012 76.1959 16.6075 76.2777 16.7855 76.3776C16.9636 76.4775 17.1091 76.519 17.1091 76.4699C17.1091 76.4 21.6333 74.1181 23.8696 73.0599C24.5882 72.7201 24.675 72.539 24.9922 70.7191C25.4292 68.2124 25.7081 66.2939 25.6629 66.1079C25.4766 65.343 24.6441 64.9243 23.9285 65.236Z" fill="#676767"/>
<path fill-rule="evenodd" clip-rule="evenodd" d="M63.574 32.3188C63.0405 32.5803 62.2568 32.9561 61.8324 33.1541C61.4078 33.3518 60.6482 33.7082 60.144 33.9456C58.0443 34.9348 54.8469 36.4323 54.0486 36.8001C53.7209 36.9511 53.0403 37.2722 52.5362 37.5137C52.032 37.7552 51.2483 38.1255 50.7946 38.3366C50.3409 38.5476 49.614 38.8856 49.1793 39.0877L48.3889 39.4555L47.8122 40.7995C47.4948 41.5388 47.1185 42.4027 46.9755 42.7189C46.8325 43.0354 46.7157 43.3126 46.7157 43.3353C46.7157 43.358 46.5919 43.6467 46.4407 43.977C46.2894 44.3072 46.1657 44.5973 46.1657 44.6218C46.1657 44.6463 46.0853 44.8413 45.987 45.0549C44.9881 47.2259 43.9108 49.8971 44.0036 49.9741C44.0619 50.0225 44.3556 50.1034 44.6565 50.1535C44.9572 50.204 46.4201 50.4766 47.9073 50.7596C49.3945 51.0429 50.8175 51.3101 51.0696 51.3538C51.5607 51.4389 52.733 51.6653 53.4069 51.805C53.6338 51.8522 54.0875 51.9379 54.4152 51.9959C54.7429 52.0539 55.176 52.1369 55.3776 52.1806C55.5793 52.2244 56.0124 52.3069 56.3401 52.3639C56.6678 52.421 57.1009 52.5035 57.3025 52.5473C57.5042 52.591 57.9373 52.6735 58.265 52.7306C58.5927 52.7877 59.0258 52.8701 59.2274 52.9139C59.4291 52.9577 59.8622 53.0402 60.1899 53.0972C60.5175 53.1543 60.9506 53.2372 61.1523 53.2812C61.354 53.3252 61.9727 53.4462 62.5272 53.55C63.0818 53.6541 64.1732 53.8626 64.9528 54.0138C65.7324 54.1651 66.487 54.2888 66.6297 54.2888H66.8891L66.8348 53.5785C66.8048 53.1877 66.759 52.4865 66.7329 52.0202C66.7067 51.5539 66.6467 51.1723 66.5999 51.1723C66.553 51.1723 66.5145 50.783 66.5145 50.3071C66.5145 49.8288 66.4735 49.4164 66.4228 49.385C66.286 49.3004 66.3085 49.0405 66.4457 49.118C66.5374 49.1698 66.5374 49.1581 66.4457 49.0593C66.3733 48.9812 66.3312 48.6579 66.3312 48.1805C66.3312 47.7651 66.2899 47.3996 66.2395 47.3684C66.1884 47.3368 66.1478 46.911 66.1478 46.406C66.1478 45.9078 66.1114 45.4777 66.0669 45.4502C66.0225 45.4227 65.9769 44.9767 65.9657 44.4593C65.9544 43.9419 65.9427 43.4689 65.9395 43.4082C65.9366 43.3472 65.8997 43.3188 65.8575 43.3447C65.8156 43.3708 65.7812 42.9334 65.7812 42.3729C65.7812 41.8124 65.7468 41.3749 65.7049 41.401C65.6627 41.4269 65.6283 41.39 65.6283 41.3188C65.6283 41.2475 65.6627 41.2106 65.7049 41.2365C65.7468 41.2626 65.7812 41.2402 65.7812 41.1868C65.7812 41.1334 65.7399 41.0896 65.6895 41.0896C65.6357 41.0896 65.5979 40.7688 65.5979 40.3105C65.5979 39.8522 65.5601 39.5314 65.5062 39.5314C65.4508 39.5314 65.4145 39.1368 65.4145 38.5307C65.4145 37.8118 65.3822 37.5192 65.3 37.4915C65.2127 37.4621 65.2179 37.4126 65.3229 37.2829C65.4022 37.1851 65.4118 37.1422 65.3458 37.1819C65.2578 37.2348 65.2312 37.073 65.2312 36.4846C65.2312 36.0263 65.1886 35.6757 65.1251 35.6122C65.0447 35.5318 65.0502 35.4676 65.148 35.3471C65.2317 35.2439 65.2367 35.2123 65.1625 35.257C65.0738 35.3102 65.0477 35.1122 65.0465 34.3809C65.0456 33.7368 65.0167 33.4797 64.9562 33.5734C64.8847 33.6841 64.8671 33.6694 64.8659 33.4992C64.865 33.3541 64.9006 33.3092 64.9791 33.3564C65.0692 33.4105 65.0701 33.3963 64.9837 33.2893C64.9232 33.2146 64.8614 32.8667 64.8462 32.5163C64.8116 31.7159 64.8061 31.715 63.574 32.3188ZM51.1101 67.3728L48.4011 67.3991L48.1923 68.7039C47.8912 70.5864 47.817 71.0477 47.723 71.6128C47.677 71.8901 47.5945 72.4057 47.5395 72.7585C47.3985 73.6644 47.2652 74.5088 47.1708 75.0959C47.1261 75.3732 47.045 75.8888 46.9907 76.2417C46.9363 76.5946 46.8539 77.1102 46.8073 77.3874C46.7608 77.6647 46.6813 78.1597 46.6304 78.4874C46.5796 78.8151 46.4556 79.5988 46.3552 80.2289C46.2548 80.8591 46.1075 81.7872 46.0278 82.2913C45.948 82.7954 45.8227 83.5791 45.7491 84.0329C45.2108 87.3503 44.8989 89.5147 44.9425 89.6281C45.0005 89.7791 45.1574 89.8098 45.1574 89.67C45.1574 89.6196 45.209 89.5774 45.272 89.5763C45.335 89.5752 45.5456 89.431 45.7399 89.2559C45.9343 89.0809 46.1311 88.9613 46.1776 88.9899C46.2239 89.0185 46.2505 88.9929 46.2367 88.9328C46.2228 88.8728 46.2791 88.8121 46.3621 88.7981C46.4448 88.7841 46.6348 88.6446 46.7844 88.4881C46.9341 88.3315 47.1059 88.2034 47.1664 88.2034C47.2269 88.2034 47.251 88.1622 47.2198 88.1118C47.1886 88.0614 47.2381 88.0201 47.3298 88.0201C47.4215 88.0201 47.548 87.9376 47.611 87.8368C47.674 87.736 47.8101 87.6535 47.9135 87.6535C48.0168 87.6535 48.0759 87.6122 48.0448 87.5618C48.0136 87.5114 48.042 87.4697 48.108 87.4692C48.174 87.4688 48.3255 87.345 48.4446 87.1943C48.5638 87.0435 48.7208 86.9202 48.7939 86.9202C48.8667 86.9202 48.9009 86.8789 48.8697 86.8285C48.8385 86.7781 48.8773 86.7369 48.9559 86.7369C49.0345 86.7369 49.0989 86.6956 49.0989 86.6452C49.0989 86.5948 49.1676 86.5535 49.2517 86.5535C49.3356 86.5535 49.3789 86.5281 49.3477 86.4967C49.2664 86.4154 49.5173 86.1869 49.688 86.1869C49.7673 86.1869 49.8321 86.1457 49.8321 86.0952C49.8321 86.0448 49.8979 86.0036 49.9781 86.0036C50.0586 86.0036 50.1459 85.9211 50.1722 85.8203C50.1986 85.7194 50.2772 85.6369 50.3468 85.6369C50.4165 85.6369 50.6255 85.4935 50.8115 85.318C50.9974 85.1427 51.167 85.0164 51.188 85.0375C51.2307 85.0799 51.4133 84.9442 51.6464 84.6974C51.7295 84.6092 51.8448 84.537 51.9021 84.537C51.9594 84.537 52.0838 84.4339 52.1784 84.3078C52.2731 84.1818 52.4051 84.0787 52.4718 84.0787C52.5382 84.0787 52.574 84.0478 52.5513 84.0099C52.5284 83.9721 52.5671 83.888 52.6374 83.823C52.7259 83.7414 52.7653 83.7373 52.7653 83.8099C52.7653 83.8674 52.8849 83.7868 53.0311 83.63C53.1776 83.4735 53.3448 83.3454 53.4033 83.3454C53.4617 83.3454 53.4839 83.3042 53.4528 83.2537C53.4216 83.2033 53.4644 83.1621 53.5481 83.1621C53.6317 83.1621 53.8144 83.0397 53.9539 82.8903C54.0935 82.7409 54.2328 82.6437 54.2635 82.6742C54.2942 82.7049 54.3453 82.6623 54.3769 82.5793C54.4088 82.4966 54.4922 82.4288 54.5625 82.4288C54.6327 82.4288 54.6902 82.3875 54.6902 82.3371C54.6902 82.2867 54.783 82.2423 54.8964 82.2381C55.0099 82.2342 55.0516 82.2104 54.989 82.185C54.8394 82.1247 55.0724 81.8788 55.2793 81.8788C55.3586 81.8788 55.4235 81.8376 55.4235 81.7872C55.4235 81.7368 55.4879 81.6955 55.5665 81.6955C55.6451 81.6955 55.6904 81.6646 55.6678 81.6268C55.6448 81.5889 55.6836 81.5049 55.7539 81.4398C55.8243 81.3749 55.8818 81.344 55.8818 81.371C55.8818 81.4182 55.9489 81.3639 56.4712 80.8935C56.5972 80.78 56.7544 80.6872 56.8206 80.6872C56.8871 80.6872 56.9991 80.607 57.0699 80.5087C57.1405 80.4106 57.2322 80.3513 57.2734 80.3767C57.3147 80.4022 57.3484 80.3563 57.3484 80.2748C57.3484 80.1932 57.3896 80.1519 57.44 80.1831C57.4904 80.2143 57.5317 80.1936 57.5317 80.1373C57.5317 80.0809 57.5654 80.0557 57.6066 80.0811C57.6479 80.1066 57.7395 80.0472 57.8101 79.9491C57.8809 79.8508 58.0225 79.7699 58.1247 79.7692C58.2785 79.7681 58.287 79.7523 58.1733 79.679C58.0642 79.6084 58.0833 79.5896 58.265 79.5873C58.4467 79.585 58.4657 79.5662 58.3566 79.4956C58.2411 79.4209 58.2466 79.4065 58.3917 79.4053C58.4866 79.4047 58.6383 79.3187 58.7286 79.2147C58.8188 79.1104 58.9268 79.0176 58.9685 79.0085C59.01 78.9991 59.0338 78.9606 59.0212 78.9228C59.0086 78.8849 59.0615 78.854 59.1387 78.854C59.2162 78.854 59.4199 78.72 59.5918 78.5561C60.3798 77.8045 60.6482 77.5813 60.6482 77.678C60.6482 77.7353 60.7245 77.694 60.818 77.5863C60.9112 77.4789 61.0093 77.4124 61.0359 77.439C61.0625 77.4656 61.2098 77.3618 61.3633 77.2082C61.5167 77.0547 61.6867 76.9291 61.741 76.9291C61.7953 76.9291 61.8398 76.8879 61.8398 76.8375C61.8398 76.7871 61.9042 76.7458 61.9827 76.7458C62.0613 76.7458 62.1067 76.7149 62.084 76.6771C62.035 76.5962 62.2062 76.4367 62.3835 76.3977C62.4518 76.3826 62.6159 76.2589 62.7481 76.1227C63.0481 75.8138 63.541 75.4625 63.6746 75.4625C63.73 75.4625 63.75 75.4213 63.7188 75.3709C63.6876 75.3205 63.7289 75.2792 63.8105 75.2792C63.8921 75.2792 63.9333 75.238 63.9021 75.1876C63.871 75.1371 63.892 75.0959 63.9491 75.0959C64.0062 75.0959 64.115 75.0336 64.1911 74.9575C64.2672 74.8814 64.3682 74.8434 64.4159 74.8727C64.4636 74.902 64.4966 74.8922 64.4895 74.8507C64.4553 74.6546 64.5105 74.5459 64.6446 74.5459C64.725 74.5459 64.9047 74.4243 65.0438 74.2753C65.1829 74.1266 65.354 73.9925 65.4244 73.9774C65.4945 73.9625 65.5733 73.9295 65.5992 73.9043C65.9276 73.586 66.2537 73.3378 66.201 73.446C66.1643 73.5216 66.1992 73.5035 66.2784 73.4057C66.358 73.3076 66.4228 73.2526 66.4228 73.2831C66.4228 73.3138 66.5635 73.2143 66.7352 73.0622C66.907 72.91 67.0752 72.7925 67.1089 72.8009C67.185 72.8202 67.5227 72.4377 67.5227 72.3321C67.5227 72.2892 67.5768 72.2544 67.6431 72.2544C67.709 72.2544 67.8518 72.1719 67.96 72.0711C68.0681 71.9703 68.1969 71.8878 68.246 71.8878C68.2952 71.8878 68.3615 71.8053 68.3935 71.7044C68.4256 71.6036 68.5223 71.5211 68.6087 71.5211C68.6949 71.5211 68.825 71.4386 68.8977 71.3378C68.9703 71.237 69.0849 71.1545 69.1525 71.1545C69.2199 71.1545 69.2496 71.1132 69.2185 71.0628C69.1873 71.0124 69.2286 70.9711 69.3101 70.9711C69.3917 70.9711 69.433 70.9299 69.4018 70.8795C69.3706 70.8291 69.43 70.7878 69.5338 70.7878C69.6376 70.7878 69.7226 70.7493 69.7226 70.7024C69.7226 70.6554 69.8051 70.5908 69.9059 70.5587C70.0068 70.5266 70.0925 70.431 70.0966 70.3463C70.1005 70.2615 70.1236 70.2406 70.1477 70.3C70.175 70.3669 70.2923 70.3029 70.4552 70.1325C70.6 69.9808 70.7818 69.8476 70.8588 69.8362C70.9358 69.8249 71.0726 69.7326 71.1628 69.6308C71.2529 69.5291 71.3989 69.4193 71.4871 69.3866C71.5753 69.3538 71.6475 69.2637 71.6475 69.1867C71.6475 69.1095 71.7149 69.0463 71.7971 69.0463C71.8794 69.0463 72.0238 68.9574 72.118 68.849C72.2121 68.7403 72.2891 68.6849 72.2891 68.7255C72.2891 68.766 72.3716 68.7041 72.4725 68.588C72.5733 68.4718 72.6558 68.4053 72.6558 68.4406C72.6558 68.4759 72.7616 68.3989 72.8909 68.2697C73.0201 68.1402 73.1709 68.0623 73.2259 68.0962C73.2857 68.1331 73.2995 68.1154 73.2603 68.0522C73.2243 67.994 73.241 67.9463 73.2974 67.9463C73.3538 67.9463 73.3705 67.8987 73.3345 67.8405C73.2969 67.7797 73.3091 67.7593 73.3632 67.7928C73.4805 67.8654 73.9017 67.5119 73.8086 67.4186C73.7431 67.3531 56.6921 67.3187 51.1101 67.3728Z" fill="#323232"/>
<path fill-rule="evenodd" clip-rule="evenodd" d="M28.6813 8.13733C28.6183 8.20906 28.5668 8.31378 28.5668 8.37015C28.5668 8.42675 28.4018 8.63139 28.2001 8.82525C27.9985 9.01911 27.8335 9.20129 27.8335 9.23039C27.8335 9.2595 27.6685 9.45336 27.4668 9.6612C27.2652 9.86904 27.1002 10.0794 27.1002 10.1287C27.1002 10.1779 26.9852 10.3276 26.8447 10.4614C26.704 10.595 26.4881 10.8487 26.3646 11.0251C26.14 11.3464 25.8715 11.6789 25.6565 11.9016C25.5935 11.9669 25.542 12.0678 25.542 12.1257C25.542 12.1837 25.377 12.3895 25.1753 12.5834C24.9737 12.7772 24.8087 12.9594 24.8087 12.9885C24.8087 13.0176 24.6437 13.2115 24.442 13.4193C24.2404 13.6271 24.0754 13.8334 24.0754 13.8776C24.0754 13.9218 23.9104 14.1281 23.7087 14.3359C23.5071 14.5438 23.3421 14.75 23.3421 14.7942C23.3421 14.8384 23.1771 15.0447 22.9754 15.2525C22.7738 15.4604 22.6088 15.668 22.6088 15.714C22.6088 15.7599 22.4644 15.942 22.288 16.1185C22.1115 16.2949 21.9672 16.4741 21.9672 16.5168C21.9672 16.5594 21.8022 16.7642 21.6005 16.9721C21.3989 17.1799 21.2339 17.3862 21.2339 17.4304C21.2339 17.4746 21.0689 17.6809 20.8672 17.8887C20.6656 18.0965 20.5006 18.3012 20.5006 18.3436C20.5006 18.386 20.315 18.6169 20.0881 18.8571C19.8613 19.0973 19.6756 19.3294 19.6756 19.3729C19.6756 19.4162 19.5416 19.5872 19.3777 19.7529C18.8468 20.2891 18.8507 20.2444 18.8507 25.8577C18.8507 30.0336 18.8734 31.0072 18.9703 31.0072C19.0831 31.0072 19.6607 31.4209 24.2734 34.8034C26.8344 36.6815 26.6146 36.4411 27.0053 37.7902C27.1149 38.1683 27.24 38.5807 27.2835 38.7068C27.3271 38.8328 27.4535 39.2453 27.5645 39.6234C27.6754 40.0015 27.8273 40.4965 27.9022 40.7233C27.9772 40.9502 28.0716 41.2595 28.1117 41.4108C28.152 41.562 28.2668 41.9539 28.367 42.2816C28.4669 42.6092 28.9039 44.0515 29.3376 45.4865C29.7717 46.9217 30.1814 48.1263 30.2483 48.1639C30.3154 48.2013 30.6931 48.4636 31.0877 48.7466C31.4823 49.0299 32.0561 49.4314 32.3629 49.6392C33.6285 50.4962 33.7837 51.4662 32.7552 52.0934C32.0957 52.4954 31.7685 52.3409 28.7959 50.224C27.9345 49.6106 27.9921 49.71 27.4609 47.9187C27.416 47.7675 27.3009 47.3962 27.2051 47.0938C27.1094 46.7913 26.9405 46.2344 26.8303 45.8563C26.7198 45.4782 26.5933 45.0658 26.5495 44.9397C26.5055 44.8137 26.1549 43.6588 25.7702 42.3732C25.3854 41.0877 24.9276 39.5821 24.7528 39.0276L24.4347 38.0193L23.9113 37.644C23.6235 37.4375 22.8105 36.8428 22.1047 36.3224C21.3989 35.8023 20.5121 35.1494 20.1339 34.8717C18.8113 33.9001 18.4373 33.6187 18.317 33.505C18.1337 33.3315 17.8424 33.4979 17.8424 33.7761C17.8424 33.8441 17.7599 33.9594 17.6591 34.0321C17.5583 34.1047 17.4758 34.2284 17.4758 34.307C17.4758 34.3856 17.3933 34.5094 17.2925 34.582C17.1916 34.6547 17.1091 34.7784 17.1091 34.857C17.1091 34.9356 17.0266 35.0593 16.9258 35.132C16.825 35.2046 16.7425 35.3284 16.7425 35.407C16.7425 35.4856 16.66 35.6093 16.5592 35.682C16.4583 35.7546 16.3758 35.8669 16.3758 35.9313C16.3758 35.9959 16.3346 36.0486 16.2842 36.0486C16.2338 36.0486 16.1925 36.1105 16.1925 36.1861C16.1925 36.2617 16.1513 36.3236 16.1009 36.3236C16.0504 36.3236 16.0092 36.3667 16.0092 36.4191C16.0092 36.4716 15.9267 36.6031 15.8259 36.7113C15.7251 36.8195 15.6426 36.9622 15.6426 37.0282C15.6426 37.0945 15.6063 37.1485 15.5621 37.1485C15.5177 37.1485 15.4301 37.2723 15.3676 37.4235C15.305 37.5748 15.2225 37.6985 15.1842 37.6985C15.146 37.6985 15.0635 37.8222 15.0009 37.9735C14.9384 38.1247 14.8536 38.2485 14.8126 38.2485C14.7718 38.2485 14.7136 38.3262 14.6836 38.4208C14.6535 38.5157 14.5477 38.6871 14.4482 38.8016C14.349 38.916 14.2676 39.0769 14.2676 39.1589C14.2676 39.2409 14.1851 39.3674 14.0843 39.4401C13.9835 39.5127 13.901 39.625 13.901 39.6894C13.901 39.754 13.8597 39.8067 13.8093 39.8067C13.7589 39.8067 13.7177 39.8686 13.7177 39.9442C13.7177 40.0198 13.6764 40.0817 13.626 40.0817C13.5756 40.0817 13.5344 40.1436 13.5344 40.2192C13.5344 40.2948 13.5 40.3567 13.4583 40.3567C13.4163 40.3567 13.3235 40.4701 13.252 40.6087C13.1803 40.7474 13.0497 40.9408 12.9615 41.0384C12.8732 41.1362 12.8011 41.2703 12.8011 41.3363C12.8011 41.4025 12.7667 41.4566 12.725 41.4566C12.683 41.4566 12.5902 41.57 12.5187 41.7087C12.447 41.8473 12.3164 42.0407 12.2282 42.1383C12.14 42.2362 12.0678 42.3702 12.0678 42.4362C12.0678 42.5025 12.0293 42.5565 11.9823 42.5565C11.9353 42.5565 11.8707 42.6388 11.8388 42.7394C11.807 42.8398 11.7245 42.9784 11.6558 43.0472C11.4539 43.249 10.3262 45.0009 10.3262 45.1125C10.3262 45.1687 10.2918 45.2147 10.2501 45.2147C10.2082 45.2147 10.1154 45.3281 10.0439 45.4668C9.97217 45.6054 9.84155 45.7988 9.75333 45.8964C9.66511 45.9943 9.59292 46.1093 9.59292 46.1524C9.59292 46.1955 9.51043 46.3192 9.4096 46.4274C9.30877 46.5356 9.22628 46.6783 9.22628 46.7443C9.22628 46.8105 9.19534 46.8648 9.15753 46.8651C9.11972 46.8653 8.94442 47.0919 8.76797 47.3687C8.59152 47.6456 8.41622 47.8722 8.37841 47.8724C8.3406 47.8727 8.30967 47.9462 8.30967 48.036C8.30967 48.1256 8.22717 48.2586 8.12634 48.3312C8.02552 48.4038 7.94302 48.5216 7.94302 48.5927C7.94302 48.6639 7.87061 48.7888 7.78193 48.8704C7.69347 48.952 7.56263 49.1321 7.49159 49.2707C7.42032 49.4094 7.32775 49.5228 7.28581 49.5228C7.24411 49.5228 7.20973 49.5769 7.20973 49.6431C7.20973 49.7091 7.13755 49.8431 7.04933 49.941C6.9611 50.0386 6.80642 50.276 6.7056 50.4685C6.60477 50.661 6.45009 50.8963 6.36187 50.9917C6.27364 51.087 6.20146 51.2194 6.20146 51.2861C6.20146 51.3528 6.11897 51.4667 6.01814 51.5393C5.91731 51.612 5.83482 51.7357 5.83482 51.8143C5.83482 51.8929 5.75232 52.0167 5.65149 52.0893C5.55067 52.1619 5.46817 52.2857 5.46817 52.3643C5.46817 52.4429 5.38568 52.5666 5.28485 52.6393C5.18402 52.7119 5.10153 52.8356 5.10153 52.9142C5.10153 52.9928 5.01903 53.1166 4.91821 53.1892C4.81738 53.2619 4.73488 53.3856 4.73488 53.4642C4.73488 53.5428 4.65239 53.6666 4.55156 53.7392C4.45073 53.8118 4.36824 53.9356 4.36824 54.0142C4.36824 54.0928 4.28574 54.2165 4.18492 54.2892C3.99289 54.4276 3.93583 54.6558 4.09325 54.6558C4.14367 54.6558 4.18492 54.7383 4.18492 54.8391C4.18492 54.94 4.22616 55.0225 4.27658 55.0225C4.32699 55.0225 4.36824 55.1049 4.36824 55.2058C4.36824 55.3066 4.40949 55.3891 4.4599 55.3891C4.51031 55.3891 4.55156 55.4682 4.55156 55.5649C4.55156 55.6613 4.5825 55.7541 4.62031 55.7711C4.70647 55.8094 5.00414 56.2975 5.07197 56.5119C5.09992 56.6002 5.15927 56.6724 5.20396 56.6724C5.24841 56.6724 5.28485 56.7548 5.28485 56.8557C5.28485 56.9565 5.3261 57.039 5.37651 57.039C5.42692 57.039 5.46817 57.1215 5.46817 57.2223C5.46817 57.3231 5.50163 57.4056 5.54265 57.4056C5.58366 57.4056 5.67395 57.55 5.74315 57.7265C5.81236 57.9029 5.90264 58.0473 5.94366 58.0473C5.98468 58.0473 6.01814 58.1091 6.01814 58.1848C6.01814 58.2604 6.05939 58.3223 6.1098 58.3223C6.16021 58.3223 6.20146 58.3841 6.20146 58.4597C6.20146 58.5354 6.24271 58.5972 6.29312 58.5972C6.34354 58.5972 6.38478 58.6797 6.38478 58.7806C6.38478 58.8814 6.42603 58.9639 6.47644 58.9639C6.52686 58.9639 6.56811 59.0271 6.56811 59.1044C6.56811 59.2803 7.0216 60.1905 7.12976 60.2318C7.17376 60.2487 7.20973 60.3415 7.20973 60.438C7.20973 60.5347 7.25098 60.6138 7.30139 60.6138C7.35181 60.6138 7.39305 60.6928 7.39305 60.7895C7.39305 60.886 7.42399 60.9788 7.4618 60.9958C7.49961 61.0125 7.63366 61.2325 7.75947 61.4846C7.8855 61.7366 8.06081 62.0228 8.14903 62.1205C8.23748 62.2183 8.30967 62.3524 8.30967 62.4184C8.30967 62.4846 8.35091 62.5387 8.40133 62.5387C8.45174 62.5387 8.49299 62.6212 8.49299 62.722C8.49299 62.8228 8.53424 62.9053 8.58465 62.9053C8.63506 62.9053 8.67631 62.9878 8.67631 63.0886C8.67631 63.1895 8.71756 63.2719 8.76797 63.2719C8.81839 63.2719 8.85963 63.3545 8.85963 63.4553C8.85963 63.5561 8.90088 63.6386 8.95129 63.6386C9.00171 63.6386 9.04295 63.7023 9.04295 63.78C9.04295 63.8577 9.12545 64.0098 9.22628 64.118C9.3271 64.2261 9.4096 64.3689 9.4096 64.4349C9.4096 64.5011 9.45085 64.5552 9.50126 64.5552C9.55167 64.5552 9.59292 64.6377 9.59292 64.7385C9.59292 64.8394 9.63417 64.9219 9.68458 64.9219C9.735 64.9219 9.77624 65.0043 9.77624 65.1052C9.77624 65.206 9.8097 65.2885 9.85072 65.2885C9.89174 65.2885 9.98202 65.4329 10.0512 65.6093C10.1204 65.7858 10.2027 65.9301 10.2341 65.9301C10.3024 65.9301 10.6012 66.5889 10.6012 66.7399C10.6012 66.7986 10.6424 66.8467 10.6929 66.8467C10.7433 66.8467 10.7845 66.9258 10.7845 67.0225C10.7845 67.119 10.8155 67.2118 10.8533 67.2287C10.8911 67.2455 11.0212 67.4551 11.1427 67.6946C11.2639 67.9341 11.398 68.13 11.4406 68.13C11.483 68.13 11.5178 68.2125 11.5178 68.3133C11.5178 68.4141 11.5591 68.4966 11.6095 68.4966C11.6599 68.4966 11.7011 68.5791 11.7011 68.68C11.7011 68.7808 11.7424 68.8633 11.7928 68.8633C11.8432 68.8633 11.8844 68.9458 11.8844 69.0466C11.8844 69.1474 11.9156 69.2299 11.9537 69.2299C11.9919 69.2299 12.0824 69.364 12.1549 69.5278C12.2275 69.6917 12.3611 69.9057 12.4523 70.0033C12.5433 70.1012 12.6177 70.2352 12.6177 70.3012C12.6177 70.3674 12.659 70.4215 12.7094 70.4215C12.7598 70.4215 12.8011 70.504 12.8011 70.6048C12.8011 70.7057 12.8423 70.7882 12.8927 70.7882C12.9431 70.7882 12.9844 70.8707 12.9844 70.9715C12.9844 71.0723 13.0256 71.1548 13.076 71.1548C13.1265 71.1548 13.1677 71.2373 13.1677 71.3381C13.1677 71.439 13.209 71.5214 13.2594 71.5214C13.3098 71.5214 13.351 71.5852 13.351 71.6628C13.351 71.7405 13.4335 71.8927 13.5344 72.0008C13.6352 72.109 13.7177 72.2518 13.7177 72.3178C13.7177 72.384 13.7589 72.4381 13.8093 72.4381C13.8597 72.4381 13.901 72.5206 13.901 72.6214C13.901 72.7222 13.9422 72.8047 13.9927 72.8047C14.0431 72.8047 14.0843 72.8838 14.0843 72.9805C14.0843 73.0769 14.1153 73.1697 14.1531 73.1867C14.1909 73.2034 14.3236 73.4376 14.4478 73.7071C14.5722 73.9766 14.7466 74.2811 14.8355 74.3836C14.9244 74.486 14.975 74.6058 14.9478 74.6498C14.9207 74.6936 14.9386 74.7296 14.9879 74.7296C15.0371 74.7296 15.091 74.689 15.1079 74.6393C15.1359 74.5564 16.6039 73.816 20.7506 71.7932C21.6191 71.3698 22.354 70.96 22.3838 70.8828C22.4314 70.7597 22.6306 69.6087 22.9793 67.4425C23.1714 66.2498 23.2727 65.8852 23.4933 65.5894C24.0884 64.7922 25.42 65.1107 25.6629 66.1082C25.7081 66.2943 25.4292 68.2127 24.9922 70.7194C24.6751 72.5393 24.5882 72.7204 23.8696 73.0602C22.2518 73.8258 17.1091 76.3909 17.1091 76.4324C17.1091 76.5158 17.3633 76.7461 17.4552 76.7461C17.5014 76.7461 17.8814 76.9134 18.2996 77.1176C18.7176 77.322 19.1777 77.5126 19.3218 77.5415C19.466 77.5704 19.584 77.63 19.584 77.6742C19.584 77.7184 19.6665 77.7544 19.7673 77.7544C19.8681 77.7544 19.9506 77.7957 19.9506 77.8461C19.9506 77.8965 20.0331 77.9377 20.1339 77.9377C20.2348 77.9377 20.3173 77.979 20.3173 78.0294C20.3173 78.0798 20.3998 78.121 20.5006 78.121C20.6014 78.121 20.6839 78.1623 20.6839 78.2127C20.6839 78.2631 20.7664 78.3044 20.8672 78.3044C20.9681 78.3044 21.0506 78.3456 21.0506 78.396C21.0506 78.4464 21.1331 78.4877 21.2339 78.4877C21.3347 78.4877 21.4172 78.5289 21.4172 78.5794C21.4172 78.6298 21.4963 78.671 21.593 78.671C21.6894 78.671 21.7822 78.7024 21.7992 78.7409C21.8159 78.7794 22.2834 79.0312 22.8379 79.301C23.3925 79.5704 24.0048 79.869 24.1987 79.9644C24.3925 80.0597 24.6091 80.1376 24.6799 80.1376C24.7507 80.1376 24.8087 80.1788 24.8087 80.2293C24.8087 80.2797 24.8912 80.3209 24.992 80.3209C25.0928 80.3209 25.1753 80.3622 25.1753 80.4126C25.1753 80.463 25.2544 80.5042 25.3511 80.5042C25.4475 80.5042 25.5403 80.5372 25.5573 80.5778C25.5992 80.6789 26.9735 81.3292 27.1449 81.3292C27.2212 81.3292 27.2835 81.3704 27.2835 81.4209C27.2835 81.4713 27.366 81.5125 27.4668 81.5125C27.5677 81.5125 27.6502 81.5538 27.6502 81.6042C27.6502 81.6546 27.7327 81.6958 27.8335 81.6958C27.9343 81.6958 28.0168 81.7371 28.0168 81.7875C28.0168 81.8379 28.0993 81.8792 28.2001 81.8792C28.301 81.8792 28.3835 81.9204 28.3835 81.9708C28.3835 82.0212 28.4659 82.0625 28.5668 82.0625C28.6676 82.0625 28.7501 82.1037 28.7501 82.1541C28.7501 82.2046 28.8108 82.2458 28.8848 82.2458C28.9589 82.2458 29.1665 82.3283 29.3459 82.4291C29.5253 82.5299 29.7329 82.6124 29.8069 82.6124C29.881 82.6124 29.9417 82.6537 29.9417 82.7041C29.9417 82.7545 30.0242 82.7958 30.125 82.7958C30.2258 82.7958 30.3083 82.837 30.3083 82.8874C30.3083 82.9378 30.3908 82.9791 30.4917 82.9791C30.5925 82.9791 30.675 83.0203 30.675 83.0708C30.675 83.1212 30.7575 83.1624 30.8583 83.1624C30.9591 83.1624 31.0416 83.2037 31.0416 83.2541C31.0416 83.3045 31.1241 83.3457 31.2249 83.3457C31.3258 83.3457 31.4083 83.387 31.4083 83.4374C31.4083 83.4878 31.4908 83.5291 31.5916 83.5291C31.6924 83.5291 31.7749 83.5703 31.7749 83.6207C31.7749 83.6711 31.8574 83.7124 31.9582 83.7124C32.0591 83.7124 32.1416 83.7536 32.1416 83.804C32.1416 83.8545 32.2241 83.8957 32.3249 83.8957C32.4257 83.8957 32.5082 83.937 32.5082 83.9874C32.5082 84.0378 32.5907 84.079 32.6915 84.079C32.7923 84.079 32.8748 84.1203 32.8748 84.1707C32.8748 84.2211 32.9573 84.2623 33.0582 84.2623C33.159 84.2623 33.2415 84.3036 33.2415 84.354C33.2415 84.4044 33.2953 84.4457 33.3613 84.4457C33.4273 84.4457 33.7617 84.5868 34.1045 84.7594C34.4473 84.9317 34.909 85.1265 35.1304 85.1918C35.3518 85.2571 35.533 85.3428 35.533 85.3822C35.533 85.4216 35.6155 85.4539 35.7163 85.4539C35.8172 85.4539 35.8997 85.4952 35.8997 85.5456C35.8997 85.596 35.9822 85.6373 36.083 85.6373C36.1838 85.6373 36.2663 85.6785 36.2663 85.7289C36.2663 85.7793 36.3488 85.8206 36.4496 85.8206C36.5505 85.8206 36.6329 85.8618 36.6329 85.9122C36.6329 85.9627 36.7154 86.0039 36.8163 86.0039C36.9171 86.0039 36.9996 86.0374 36.9996 86.0784C36.9996 86.1194 37.144 86.2097 37.3204 86.2789C37.4969 86.3481 37.6412 86.4384 37.6412 86.4794C37.6412 86.5204 37.7237 86.5539 37.8245 86.5539C37.9254 86.5539 38.0079 86.5951 38.0079 86.6455C38.0079 86.6959 38.0904 86.7372 38.1912 86.7372C38.292 86.7372 38.3745 86.7784 38.3745 86.8289C38.3745 86.8793 38.457 86.9205 38.5578 86.9205C38.6587 86.9205 38.7412 86.9618 38.7412 87.0122C38.7412 87.0626 38.7991 87.1038 38.8699 87.1038C38.9407 87.1038 39.1573 87.1843 39.3512 87.2828C40.0111 87.6178 40.5169 87.8371 40.6298 87.8371C40.6917 87.8371 40.7561 87.8701 40.7731 87.9107C40.8164 88.0154 42.9149 89.0287 43.0884 89.0287C43.1677 89.0287 43.2325 89.07 43.2325 89.1204C43.2325 89.1708 43.315 89.212 43.4159 89.212C43.5167 89.212 43.5992 89.2533 43.5992 89.3037C43.5992 89.3541 43.6817 89.3954 43.7825 89.3954C43.8833 89.3954 43.9658 89.4366 43.9658 89.487C43.9658 89.5374 44.0483 89.5787 44.1492 89.5787C44.25 89.5787 44.3325 89.6199 44.3325 89.6703C44.3325 89.7208 44.4812 89.762 44.6632 89.762C44.915 89.762 44.9814 89.7302 44.9425 89.6284C44.8987 89.5145 45.2159 87.3174 45.753 84.0103C45.8288 83.5439 45.9542 82.7603 46.0317 82.2687C46.1091 81.7772 46.2548 80.8594 46.3552 80.2293C46.4556 79.5991 46.5796 78.8154 46.6304 78.4877C46.6813 78.16 46.7608 77.665 46.8073 77.3878C46.8539 77.1105 46.9363 76.5949 46.9907 76.242C47.045 75.8891 47.1261 75.3735 47.1708 75.0962C47.2652 74.5091 47.3985 73.6647 47.5395 72.7589C47.5945 72.406 47.677 71.8904 47.723 71.6131C47.817 71.048 47.8912 70.5867 48.1923 68.7042L48.4011 67.3995L51.1101 67.3738L53.8194 67.3481L51.0925 67.3266C49.5927 67.3147 48.3651 67.2741 48.3644 67.2363C48.3633 67.1678 47.6479 64.3808 47.2056 62.722C47.078 62.2431 46.9389 61.7068 46.8965 61.5304C46.8541 61.3539 46.7727 61.0446 46.7157 60.8429C46.6586 60.6413 46.5766 60.3319 46.5335 60.1555C46.4904 59.979 46.3662 59.5047 46.2574 59.1014C46.1485 58.6981 46.0248 58.2237 45.9824 58.0473C45.94 57.8708 45.8227 57.4171 45.7216 57.039C45.4271 55.9365 45.1034 54.7035 44.7463 53.3267C44.5635 52.6209 44.3098 51.6553 44.1828 51.1809C44.0559 50.7066 43.972 50.2426 43.9963 50.1497C44.0204 50.0572 44.0075 49.9612 43.9677 49.9364C43.9088 49.9 45.2539 46.6485 45.987 45.0552C46.0853 44.8417 46.1657 44.6466 46.1657 44.6221C46.1657 44.5976 46.2894 44.3075 46.4407 43.9773C46.5919 43.6471 46.7157 43.3586 46.7157 43.3361C46.7157 43.3137 46.8144 43.0774 46.935 42.8114C47.0555 42.5451 47.429 41.6892 47.765 40.9089C48.1009 40.1289 48.418 39.4644 48.4698 39.4323C48.5287 39.3958 48.5166 39.3555 48.4378 39.3253C48.3681 39.2987 48.0677 38.8702 47.77 38.3731C47.4726 37.8761 47.0722 37.2345 46.8807 36.9473C46.6891 36.6602 46.5323 36.402 46.5323 36.3733C46.5323 36.3447 46.3515 36.0436 46.1306 35.7037C45.91 35.3641 45.3268 34.4262 44.835 33.6196C44.3433 32.813 43.747 31.8436 43.5098 31.4655C43.2727 31.0874 42.9069 30.4997 42.6972 30.1594C42.4876 29.8191 42.1564 29.2829 41.9617 28.9678C40.3429 26.3504 39.1481 24.4056 39.009 24.1618C38.9176 24.0014 38.7013 23.6507 38.528 23.3826C38.355 23.1145 37.9478 22.4621 37.6233 21.9328C36.7028 20.4309 35.5433 18.5498 35.1657 17.9455C34.7961 17.3539 33.6063 15.4226 32.279 13.2591C31.8253 12.5197 31.2845 11.6422 31.0774 11.3095C29.4928 8.76475 29.2084 8.28399 29.2084 8.15108C29.2084 7.96295 28.8434 7.95332 28.6813 8.13733ZM18.7228 31.9775C18.6921 32.0574 18.7072 32.1915 18.7561 32.2754C18.8269 32.3968 18.8457 32.367 18.8479 32.1301C18.8509 31.804 18.809 31.7529 18.7228 31.9775ZM65.0726 35.4116C65.0655 35.5078 65.0981 35.6105 65.1453 35.6398C65.1925 35.6689 65.2312 35.6102 65.2312 35.5094C65.2312 35.2704 65.0901 35.1831 65.0726 35.4116ZM65.7812 43.2385C65.7812 43.4427 65.9246 43.4832 65.9398 43.2834C65.9471 43.1863 65.9143 43.1065 65.8671 43.1065C65.8199 43.1065 65.7812 43.1659 65.7812 43.2385ZM66.1478 47.1799C66.1478 47.2526 66.1891 47.3376 66.2395 47.3687C66.2899 47.3999 66.3312 47.3406 66.3312 47.2368C66.3312 47.133 66.2899 47.0479 66.2395 47.0479C66.1891 47.0479 66.1478 47.1073 66.1478 47.1799ZM64.4262 74.7317C64.319 74.9035 64.324 74.9086 64.4959 74.8013C64.5978 74.7376 64.6813 74.6542 64.6813 74.6159C64.6813 74.4835 64.5417 74.547 64.4262 74.7317ZM60.4878 77.7138C60.3528 77.8605 60.3416 77.9377 60.455 77.9377C60.5331 77.9377 60.6796 77.6618 60.6273 77.613C60.6136 77.6002 60.5508 77.6456 60.4878 77.7138Z" fill="#EEEEEE"/>
</g>
<defs>
<filter id="filter0_d_5_30" x="0.00219727" y="0" width="78" height="89.762" filterUnits="userSpaceOnUse" color-interpolation-filters="sRGB">
<feFlood flood-opacity="0" result="BackgroundImageFix"/>
<feColorMatrix in="SourceAlpha" type="matrix" values="0 0 0 0 0 0 0 0 0 0 0 0 0 0 0 0 0 0 127 0" result="hardAlpha"/>
<feOffset dy="-4"/>
<feGaussianBlur stdDeviation="2"/>
<feComposite in2="hardAlpha" operator="out"/>
<feColorMatrix type="matrix" values="0 0 0 0 0 0 0 0 0 0 0 0 0 0 0 0 0 0 0.25 0"/>
<feBlend mode="normal" in2="BackgroundImageFix" result="effect1_dropShadow_5_30"/>
<feBlend mode="normal" in="SourceGraphic" in2="effect1_dropShadow_5_30" result="shape"/>
</filter>
</defs>
</svg>
